<svg width="124" height="42" viewBox="0 0 124 42" fill="none" xmlns="http://www.w3.org/2000/svg">
<rect width="124" height="42" rx="6" fill="#1C1C1C"/>
<path d="M38.1176 11.1907H35.5789V11.9386H37.3795C37.2904 12.9874 36.4116 13.4347 35.582 13.4347C34.5206 13.4347 33.5944 12.6056 33.5944 11.4435C33.5944 10.3115 34.4773 9.43972 35.5842 9.43972C36.4385 9.43972 36.9417 9.98017 36.9417 9.98017L37.4692 9.43789C37.4692 9.43789 36.7921 8.68966 35.5573 8.68966C33.985 8.68966 32.7687 10.0071 32.7687 11.4301C32.7687 12.8246 33.9129 14.1841 35.5973 14.1841C37.0791 14.1841 38.1637 13.1767 38.1637 11.6866C38.1637 11.3723 38.1176 11.1907 38.1176 11.1907Z" fill="white"/>
<path d="M38.5959 23.2445H44.1744C44.1783 23.2602 44.2752 23.6573 44.2752 24.334C44.2752 27.6082 41.8921 29.8224 38.6364 29.8224C34.9347 29.8224 32.4205 26.8347 32.4205 23.7707C32.4205 20.6437 35.0934 17.7486 38.5484 17.7488C41.2617 17.7488 42.7494 19.3929 42.7494 19.3929L41.5903 20.5845C41.5903 20.5845 40.4844 19.3967 38.6076 19.3967C36.1751 19.3967 34.235 21.3124 34.235 23.7999C34.235 26.3533 36.2702 28.1752 38.6025 28.1752C40.4255 28.1752 42.3567 27.1924 42.5523 24.8879H38.5959V23.2445Z" fill="white"/>
<path fill-rule="evenodd" clip-rule="evenodd" d="M44.9869 25.9031C44.9869 23.8309 46.6273 22.0543 48.9165 22.0543C50.798 22.0543 52.8385 23.378 52.8385 25.9482C52.8385 28.1906 51.0843 29.8153 48.9431 29.8153C46.5779 29.8153 44.9869 28.0057 44.9869 25.9031ZM51.1315 25.9379C51.1315 24.4821 50.0648 23.5785 48.9391 23.5785C47.6743 23.5785 46.7022 24.5824 46.7022 25.9266C46.7022 27.3003 47.6865 28.2922 48.9339 28.2922C50.0693 28.2922 51.1315 27.3628 51.1315 25.9379Z" fill="white"/>
<path fill-rule="evenodd" clip-rule="evenodd" d="M57.5553 22.0543C55.2662 22.0543 53.6257 23.8309 53.6257 25.9031C53.6257 28.0057 55.2168 29.8153 57.5822 29.8153C59.7233 29.8153 61.4774 28.1906 61.4774 25.9482C61.4774 23.378 59.4371 22.0543 57.5553 22.0543ZM57.578 23.5785C58.7036 23.5785 59.7704 24.4821 59.7704 25.9379C59.7704 27.3628 58.7082 28.2922 57.5727 28.2922C56.3254 28.2922 55.3413 27.3003 55.3413 25.9266C55.3413 24.5824 56.3131 23.5785 57.578 23.5785Z" fill="white"/>
<path fill-rule="evenodd" clip-rule="evenodd" d="M62.2644 25.9357C62.2644 23.8853 63.9161 22.0585 66.017 22.0585C66.9317 22.0585 67.6208 22.4099 68.1246 22.949V22.2917H69.7634V29.2647C69.7634 32.0043 68.1713 33.3103 66.0822 33.3103C64.1724 33.3103 63.0996 32.1446 62.5665 31.0253L64.0689 30.4018C64.277 30.9019 64.8759 31.7836 66.0698 31.7836C67.3057 31.7836 68.1245 30.9815 68.1245 29.6427V28.8775C67.6872 29.3814 67.0949 29.8205 65.9807 29.8205C64.1791 29.8205 62.2644 28.2716 62.2644 25.9357ZM66.169 23.5796C67.1992 23.5796 68.257 24.4528 68.257 25.944C68.257 27.4598 67.2014 28.2951 66.1463 28.2951C65.0264 28.2951 63.984 27.3922 63.984 25.9584C63.984 24.4687 65.0665 23.5796 66.169 23.5796Z" fill="white"/>
<path fill-rule="evenodd" clip-rule="evenodd" d="M73.7488 25.9245C73.7488 23.6146 75.4128 22.0491 77.3947 22.0491C78.9578 22.0491 80.1389 23.0841 80.6452 24.3232L80.9174 24.9559L75.6761 27.1149C75.9892 27.6935 76.4946 28.2909 77.5933 28.2911C78.5715 28.2911 79.1578 27.7631 79.5085 27.2227L80.8596 28.1153C80.2538 28.9202 79.2388 29.8183 77.585 29.8183C75.6035 29.8183 73.7488 28.3687 73.7488 25.9245ZM77.4631 23.5416C78.1772 23.5416 78.6911 23.9185 78.9094 24.3705L75.4092 25.8228C75.2584 24.6984 76.3316 23.5416 77.4631 23.5416Z" fill="white"/>
<path d="M72.7993 29.5879H71.0777V18.1501H72.7993V29.5879Z" fill="white"/>
<path d="M94.1598 29.5879H95.8814V18.1501H94.1598V29.5879Z" fill="white"/>
<path fill-rule="evenodd" clip-rule="evenodd" d="M86.7519 29.5879H85.0303V18.1501L89.1948 18.15C91.2135 18.15 92.8651 19.7896 92.8651 21.7937C92.8651 23.7977 91.2135 25.4374 89.1948 25.4374H86.7519V29.5879ZM86.7519 23.7282V19.8591H89.1947C90.2633 19.8591 91.1436 20.7329 91.1436 21.7937C91.1436 22.8544 90.2633 23.7282 89.1947 23.7282H86.7519Z" fill="white"/>
<path d="M108.592 33.3103L113.577 22.0493H111.697L109.441 27.1452L107.185 22.0493H105.305L108.501 29.2692L106.712 33.3103H108.592Z" fill="white"/>
<path fill-rule="evenodd" clip-rule="evenodd" d="M102.927 29.5879H104.649V25.4742C104.918 21.2314 99.5001 20.2336 97.45 23.2922L98.8354 24.215C99.8378 22.4751 102.698 22.8755 102.886 24.7401C102.027 24.514 101.098 24.3501 100.249 24.4354C98.9249 24.5684 97.7909 25.4035 97.6107 26.7712C97.5133 27.5103 97.6795 28.4213 98.1992 28.9765C99.0092 29.8416 100.339 29.9581 101.431 29.6626C102.046 29.4961 102.531 29.1333 102.927 28.6647V29.5879ZM101.022 28.1717C101.964 27.9169 102.707 27.2327 102.927 26.2816C102.446 26.1267 102.002 26.0017 101.495 25.9409C98.5361 25.4993 99.0314 28.7104 101.022 28.1717Z" fill="white"/>
<path d="M49.2774 14.0776H48.494V8.87233H49.2774V14.0776Z" fill="white"/>
<path d="M44.1063 14.0776H44.8899V9.65007H46.1759V8.87233H42.8203V9.65007H44.1063V14.0776Z" fill="white"/>
<path d="M41.9942 14.0776H38.9896V8.87233H41.9942V9.65007H39.7731V11.0861H41.7268V11.8638H39.7731V13.2997H41.9942V14.0776Z" fill="white"/>
<path d="M51.9847 14.0776V9.65007H53.2707V8.87233H49.9152V9.65007H51.2013V14.0776H51.9847Z" fill="white"/>
<path fill-rule="evenodd" clip-rule="evenodd" d="M55.2866 11.4301C55.2866 10.007 56.503 8.68966 58.0754 8.68966C59.6477 8.68966 60.8641 10.007 60.8641 11.4301C60.8641 12.8134 59.738 14.1623 58.0754 14.1837C56.4127 14.1623 55.2866 12.8134 55.2866 11.4301ZM58.0754 13.4343C57.0243 13.4215 56.1124 12.5966 56.1124 11.4435C56.1124 10.3208 56.9811 9.45399 58.0754 9.43997C59.1698 9.45399 60.0383 10.3208 60.0383 11.4435C60.0383 12.5966 59.1264 13.4215 58.0754 13.4343Z" fill="white"/>
<path d="M62.4302 14.0776H61.6467V8.87233H62.4302L64.9452 12.6619V8.87233H65.7287V14.0776H64.9465L62.4302 10.286V14.0776Z" fill="white"/>
<path d="M11.376 15.1822L20.2282 23.9572L11.4185 32.8092C11.1614 32.647 11.0236 32.2958 11.0213 31.8422L10.9414 16.1313C10.939 15.6345 11.121 15.3315 11.376 15.1822Z" fill="white"/>
<path d="M12.383 15.1941L23.1472 21.0243L20.5943 23.5892L12.0074 15.0769C12.1374 15.0938 12.268 15.1318 12.383 15.1941Z" fill="white"/>
<path d="M23.6259 26.5944L20.9631 23.9547L23.6232 21.2821L27.2865 23.2659C28.1889 23.7544 27.7273 24.3656 27.2865 24.6051L23.6259 26.5944Z" fill="white"/>
<path d="M12.383 32.7031C12.3017 32.7482 12.2233 32.7836 12.1482 32.8116L20.5969 24.3227L23.1494 26.853L12.383 32.7031Z" fill="white"/>
</svg>
